<svg width="70" height="90" viewBox="0 0 70 90" fill="none" xmlns="http://www.w3.org/2000/svg">
<g clip-path="url(#clip0)">
<path d="M28.353 10.67C29.3357 10.7084 30.2935 10.3556 31.0164 9.68874C31.7393 9.02192 32.1682 8.09561 32.209 7.113C32.2146 6.45951 32.0195 5.82004 31.65 5.281L28.353 0L25.053 5.282C24.6858 5.82146 24.4928 6.46049 24.5 7.113C24.5439 8.09398 24.9733 9.01795 25.6948 9.68404C26.4164 10.3501 27.3716 10.7045 28.353 10.67V10.67ZM37.222 28.435L35.159 26.535L33.077 28.435C31.7631 29.5583 30.0912 30.1756 28.3625 30.1756C26.6338 30.1756 24.9619 29.5583 23.648 28.435L21.585 26.535L19.485 28.435C18.2 29.604 16.5221 30.2466 14.785 30.235C13.4459 30.2362 12.1337 29.8587 11 29.146V37.346C11.0221 37.8367 11.2371 38.2988 11.5981 38.6317C11.9592 38.9647 12.4372 39.1416 12.928 39.124H43.778C44.2688 39.1416 44.7468 38.9647 45.1079 38.6317C45.4689 38.2988 45.6839 37.8367 45.706 37.346V29.146C44.5736 29.8562 43.2637 30.2323 41.927 30.231C40.189 30.2447 38.5096 29.6035 37.223 28.435H37.222ZM39.922 16H30.281V12.448H26.425V16H16.784C16.0536 15.9708 15.3245 16.0857 14.6386 16.3383C13.9526 16.5909 13.323 16.9761 12.7859 17.472C12.2488 17.9678 11.8147 18.5647 11.5082 19.2283C11.2018 19.892 11.0291 20.6096 11 21.34V24.079C11.0421 25.0412 11.4631 25.9476 12.1711 26.6005C12.8791 27.2534 13.8166 27.5998 14.779 27.564C15.7627 27.5771 16.7144 27.2144 17.44 26.55L21.566 22.762L25.673 26.55C26.417 27.187 27.3641 27.5371 28.3435 27.5371C29.3229 27.5371 30.27 27.187 31.014 26.55L35.14 22.762L39.247 26.55C39.9745 27.2113 40.9249 27.5735 41.908 27.564C42.8704 27.5998 43.8079 27.2534 44.5159 26.6005C45.2239 25.9476 45.6449 25.0412 45.687 24.079V21.34C45.6618 20.61 45.4923 19.8921 45.1884 19.2279C44.8845 18.5637 44.4522 17.9661 43.9163 17.4697C43.3804 16.9734 42.7516 16.5879 42.066 16.3357C41.3805 16.0834 40.6518 15.9693 39.922 16V16Z" fill="#042046"/>
</g>
<g clip-path="url(#clip1)">
<path d="M68.2071 59.2001L53.6201 40.9501C53.1431 40.3447 52.5357 39.8548 51.8432 39.5166C51.1506 39.1785 50.3907 39.0009 49.6201 38.9971H3.47106C2.53062 39.017 1.63661 39.4097 0.985686 40.0888C0.334758 40.7678 -0.0197787 41.6776 5.72867e-05 42.6181V75.1831C-0.0189728 76.123 0.335923 77.032 0.986764 77.7104C1.63761 78.3888 2.53115 78.7811 3.47106 78.8011H6.94106C6.88343 81.6209 7.94777 84.3483 9.90017 86.3838C11.8526 88.4192 14.5332 89.5962 17.3531 89.6561C20.1729 89.5962 22.8536 88.4192 24.8059 86.3838C26.7583 84.3483 27.8227 81.6209 27.7651 78.8011H41.6481C41.5897 80.2048 41.8158 81.6059 42.3127 82.92C42.8096 84.2341 43.5672 85.4342 44.5398 86.4481C45.5124 87.462 46.6799 88.2688 47.9723 88.8199C49.2646 89.371 50.6551 89.6551 52.0601 89.6551C53.465 89.6551 54.8555 89.371 56.1478 88.8199C57.4402 88.2688 58.6078 87.462 59.5803 86.4481C60.5529 85.4342 61.3105 84.2341 61.8074 82.92C62.3044 81.6059 62.5304 80.2048 62.4721 78.8011H65.9431C66.883 78.7811 67.7765 78.3888 68.4274 77.7104C69.0782 77.032 69.4331 76.123 69.4141 75.1831V62.6751C69.4168 61.4137 68.9916 60.1886 68.2081 59.2001H68.2071ZM6.94106 57.0911V46.2371H17.3531V57.0911H6.94106ZM17.3531 84.2291C15.9518 84.172 14.627 83.5752 13.6557 82.5636C12.6845 81.552 12.1421 80.2039 12.1421 78.8016C12.1421 77.3992 12.6845 76.0511 13.6557 75.0395C14.627 74.0279 15.9518 73.4311 17.3531 73.3741C18.7543 73.4311 20.0791 74.0279 21.0504 75.0395C22.0216 76.0511 22.564 77.3992 22.564 78.8016C22.564 80.2039 22.0216 81.552 21.0504 82.5636C20.0791 83.5752 18.7543 84.172 17.3531 84.2291V84.2291ZM34.7061 57.0911H24.2941V46.2371H34.7061V57.0911ZM52.0591 84.2291C50.976 84.2742 49.9042 83.9942 48.9816 83.4252C48.059 82.8561 47.3277 82.0241 46.8818 81.036C46.436 80.048 46.2959 78.9491 46.4797 77.8809C46.6635 76.8126 47.1627 75.8237 47.9131 75.0414C48.6635 74.2592 49.6308 73.7193 50.6905 73.4913C51.7502 73.2633 52.854 73.3576 53.8597 73.762C54.8654 74.1664 55.7271 74.8625 56.334 75.7607C56.9409 76.6589 57.2651 77.7181 57.2651 78.8021C57.2937 80.2119 56.7615 81.5755 55.7853 82.5931C54.8091 83.6107 53.4689 84.1991 52.0591 84.2291V84.2291ZM41.6481 57.0911V46.2371H48.8081L57.4851 57.0921L41.6481 57.0911Z" fill="#042046"/>
</g>
<defs>
<clipPath id="clip0">
<rect width="34.706" height="39.123" fill="white" transform="translate(11)"/>
</clipPath>
<clipPath id="clip1">
<rect width="69.413" height="50.656" fill="white" transform="translate(0 39)"/>
</clipPath>
</defs>
</svg>
